<?xml version="1.0" encoding="UTF-8" standalone="no"?><svg xmlns="http://www.w3.org/2000/svg" xmlns:xlink="http://www.w3.org/1999/xlink" contentScriptType="text/ecmascript" fill="#000000" width="299" zoomAndPan="magnify" contentStyleType="text/css" viewBox="0 0 298.62 117.17" height="117" preserveAspectRatio="xMidYMid meet" version="1"><path fill="#ffffff" d="M110.89,30.03l-16.65,57.12h-15.58l-8.16-27.66-8.16,27.66h-15.58L30.03,30.03h16.07l8.73,37.04,8.57-37.04h14.2l8.49,37.04,8.73-37.04h16.07ZM173.12,87.14h-14.77l-19.34-30.11v30.11h-15.1V30.03h14.77l19.34,31.82v-31.82h15.1v57.12ZM187.78,30.03h26.93c3.86,0,7.26-.14,10.2-.41,2.94-.27,5.74-.82,8.4-1.63l3.43,13.14c-2.72.87-5.39,1.47-8,1.8-2.56.33-5.77.49-9.63.49v43.73h-15.1v-43.73h-16.24v-13.38ZM264.83,87.14h-15.01V30.03h15.01v57.12Z"/></svg>